<svg width="461" height="93" viewBox="0 0 461 93" fill="none" xmlns="http://www.w3.org/2000/svg">
<path d="M12.16 46.08C12.16 67.328 25.984 81.28 46.592 81.28C62.336 81.28 72.832 73.216 77.44 59.648H90.24C85.504 79.488 69.632 92.16 46.592 92.16C18.56 92.16 0 73.728 0 46.08C0 18.432 18.56 0 46.592 0C69.632 0 85.504 12.672 90.24 32.512H77.44C72.832 18.944 62.336 10.88 46.592 10.88C25.984 10.88 12.16 24.704 12.16 46.08Z" fill="white"/>
<path d="M100.872 90.88V1.28H113.032V90.88H100.872Z" fill="white"/>
<path d="M123.622 90.88V1.28H135.782V79.488H139.878C169.318 79.488 184.166 63.616 184.166 34.304V1.28H196.454V33.28C196.454 70.656 175.846 90.88 137.574 90.88H123.622Z" fill="white"/>
<path d="M207.122 90.88V1.28H219.282V90.88H207.122Z" fill="white"/>
<path d="M307.44 12.416H274.416V90.88H262.384V12.416H229.36V1.28H307.44V12.416Z" fill="white"/>
<path d="M377.579 1.28V90.88H365.291V66.176L316.907 66.048V90.88H304.747V58.88C304.747 21.376 325.355 1.28 363.627 1.28H377.579ZM317.035 54.784L365.291 54.912V12.672H361.195C332.907 12.672 317.931 27.52 317.035 54.784Z" fill="white"/>
<path d="M387.991 26.496C387.991 8.832 401.943 0 426.135 0C439.191 0 447.383 1.408 456.983 4.992V17.152C450.711 14.976 442.903 11.008 426.647 11.008C408.471 11.008 400.023 16.128 400.023 25.984C400.023 50.304 460.823 29.184 460.823 65.792C460.823 83.456 446.871 92.288 422.679 92.288C409.495 92.288 401.303 90.88 391.831 87.296V75.136C398.103 77.312 405.911 81.28 422.167 81.28C440.343 81.28 448.791 76.16 448.791 66.432C448.791 42.112 387.991 62.976 387.991 26.496Z" fill="white"/>
</svg>
